<svg xmlns="http://www.w3.org/2000/svg" viewBox="0 0 170.33 170.33"><defs><style>.cls-1{fill:#086bf7;}.cls-2,.cls-3{fill:none;stroke:#231815;stroke-miterlimit:10;}.cls-2{stroke-width:0.25px;}.cls-4{fill:#231815;}</style></defs><g id="图层_2" data-name="图层 2"><path class="cls-1" d="M120.54,486.16" transform="translate(-60.13 -386.68)"/><path class="cls-1" d="M135,486.05" transform="translate(-60.13 -386.68)"/><polyline class="cls-1" points="122.63 29.47 56.14 29.47 59.99 43.87 111.82 43.87 126.95 100.34 141.3 100.34 122.31 29.47"/><polyline class="cls-1" points="27.49 29.47 41.66 29.47 56.65 85.43 108.42 85.43 112.42 100.34 112.28 100.34 46.58 100.34 46.72 100.34 27.73 29.47 41.66 29.47 42.04 29.47"/><polygon class="cls-1" points="78.51 114.51 61.5 114.51 69.1 142.86 77.6 142.86 72.28 123 80.78 123 86.11 142.86 94.61 142.86 89.29 123 78.51 114.51"/><polygon class="cls-1" points="97.79 123 87.01 114.51 104.02 114.51 111.62 142.86 103.11 142.86 97.79 123"/><polygon class="cls-1" points="137.13 142.86 128.62 142.86 121.03 114.51 112.53 114.51 114.8 123 123.31 123 131.81 123 140.31 123 138.04 114.51 129.53 114.51 137.13 142.86"/><polygon class="cls-1" points="55.27 123 46.77 123 50.01 135.08 41.5 135.08 35.99 114.51 27.49 114.51 35.08 142.86 60.59 142.86 55.27 123"/><rect class="cls-2" x="0.13" y="0.13" width="170.08" height="170.08" rx="28.35"/><path class="cls-3" d="M216.16,429.55" transform="translate(-60.13 -386.68)"/><path class="cls-4" d="M121.53,485.16" transform="translate(-60.13 -386.68)"/><path class="cls-4" d="M136,485.05" transform="translate(-60.13 -386.68)"/><polyline class="cls-4" points="123.61 28.47 57.12 28.47 60.98 42.87 112.81 42.87 127.94 99.34 142.28 99.34 123.3 28.47"/><polyline class="cls-4" points="28.47 28.47 42.65 28.47 57.64 84.43 109.41 84.43 113.4 99.34 113.27 99.34 47.57 99.34 47.7 99.34 28.71 28.47 42.65 28.47 43.02 28.47"/><polygon class="cls-4" points="79.5 113.51 62.49 113.51 70.08 141.86 78.59 141.86 73.27 122 81.77 122 87.09 141.86 95.59 141.86 90.28 122 79.5 113.51"/><polygon class="cls-4" points="98.78 122 88 113.51 105.01 113.51 112.6 141.86 104.1 141.86 98.78 122"/><polygon class="cls-4" points="138.11 141.86 129.61 141.86 122.02 113.51 113.51 113.51 115.79 122 124.29 122 132.79 122 141.3 122 139.02 113.51 130.52 113.51 138.11 141.86"/><polygon class="cls-4" points="56.26 122 47.76 122 50.99 134.08 42.49 134.08 36.98 113.51 28.47 113.51 36.07 141.86 61.58 141.86 56.26 122"/></g></svg>